<svg id="Layer_5" enable-background="new 0 0 64 64" height="512" viewBox="0 0 64 64" width="512" fill="white" xmlns="http://www.w3.org/2000/svg"><path d="m29 29v-1c0-3.768-2.33-6.998-5.623-8.337.991-.914 1.623-2.212 1.623-3.663 0-2.757-2.243-5-5-5s-5 2.243-5 5c0 1.451.632 2.749 1.623 3.663-3.293 1.339-5.623 4.569-5.623 8.337v1zm-12-13c0-1.654 1.346-3 3-3s3 1.346 3 3-1.346 3-3 3-3-1.346-3-3zm3 5c3.521 0 6.442 2.612 6.929 6h-13.858c.487-3.388 3.408-6 6.929-6z"/><path d="m16 35h8v2h-8z"/><path d="m54.929 1c-2.155 0-4.183.84-5.707 2.364l-.222.222-.222-.222c-1.524-1.524-3.551-2.364-5.707-2.364-4.45 0-8.071 3.621-8.071 8.071v.649c0 2.378 1.042 4.624 2.858 6.161l11.142 9.429 11.142-9.428c1.816-1.537 2.858-3.783 2.858-6.161v-.65c0-4.45-3.621-8.071-8.071-8.071zm-11.858 2c1.621 0 3.146.632 4.293 1.778l1.636 1.636 1.636-1.636c1.146-1.146 2.672-1.778 4.293-1.778 3.324 0 6.029 2.685 6.068 6h-7.717l-1.465 4.394-2.644-5.288-3.078 4.104-2.527-4.21h-6.466c.509-2.838 2.99-5 5.971-5zm15.78 11.354-9.851 8.336-9.851-8.336c-1.294-1.096-2.057-2.67-2.134-4.354h5.418l3.474 5.79 2.922-3.896 3.356 6.712 2.536-7.606h6.142c-.28 1.298-.978 2.479-2.012 3.354z"/><path d="m49 27c-4.411 0-8 3.589-8 8 0 3.302 1.99 6.175 5 7.391v4.609h2v10c0 2.206-1.794 4-4 4s-4-1.794-4-4v-2c0-3.309-2.691-6-6-6s-6 2.691-6 6v2.5c0 1.93-1.57 3.5-3.5 3.5s-3.5-1.57-3.5-3.5v-7.551c10.011-.525 18-8.81 18-18.949v-7-3-3h-6v-12c0-2.757-2.243-5-5-5h-16c-2.757 0-5 2.243-5 5v12h-6v3 3 7c0 10.139 7.989 18.424 18 18.949v7.551c0 3.032 2.468 5.5 5.5 5.5s5.5-2.468 5.5-5.5v-2.5c0-2.206 1.794-4 4-4s4 1.794 4 4v2c0 3.309 2.691 6 6 6s6-2.691 6-6v-10h2v-4.611c2.972-1.212 5-4.134 5-7.389 0-4.411-3.589-8-8-8zm-12-7v1 1h-4v-2zm-28 13h22v3c0 1.654-1.346 3-3 3h-16c-1.654 0-3-1.346-3-3zm22-2h-22v-22h22zm-19-28h16c1.654 0 3 1.346 3 3v1h-22v-1c0-1.654 1.346-3 3-3zm-9 17h4v2h-4v-1zm0 11v-7h4v12c0 2.757 2.243 5 5 5h16c2.757 0 5-2.243 5-5v-12h4v7c0 9.374-7.626 17-17 17s-17-7.626-17-17zm47 14h-2v-5c0-.552.448-1 1-1s1 .448 1 1zm2-4.826v-.174c0-1.654-1.346-3-3-3s-3 1.346-3 3v.18c-1.829-1.053-3-2.99-3-5.18 0-3.309 2.691-6 6-6s6 2.691 6 6c0 2.156-1.19 4.115-3 5.174z"/></svg>