<?xml version="1.0" encoding="utf-8"?>
<!-- Generator: Adobe Illustrator 17.1.0, SVG Export Plug-In . SVG Version: 6.00 Build 0)  -->
<!DOCTYPE svg PUBLIC "-//W3C//DTD SVG 1.0//EN" "http://www.w3.org/TR/2001/REC-SVG-20010904/DTD/svg10.dtd">
<svg version="1.0" id="_x2014_ÎÓÈ_x5F_1" xmlns="http://www.w3.org/2000/svg" xmlns:xlink="http://www.w3.org/1999/xlink"
	 x="0px" y="0px" viewBox="0 0 70 72" style="enable-background:new 0 0 70 72;" xml:space="preserve">
<style type="text/css">
	.st0{fill-rule:evenodd;clip-rule:evenodd;fill:#4F4F4F;}
</style>
<g>
	<path class="st0" d="M68.08,48.21c0.12,1.36-0.16,3.8-0.75,4.98c-0.27,0.53-1.03,0.89-1.37,1.49c-0.33,0.58-0.3,1.31-0.62,1.75
		c-1.12,1.54-3.41,1.88-5.73,2.49c-1.28,0.34-2.66,0.66-3.86,0.75c-1.04,0.07-3.04-0.48-3.99,0c-0.59,0.3-0.98,1.59-1.37,2.24
		c-1.07,1.78-2.23,3.47-3.86,4.86c-1.48,1.26-2.67,1.39-4.86,2.24c-1.82,0.71-4.22,1.53-6.98,1.37c-4.98-0.29-6.91-2.6-9.1-5.86
		c-0.69-1.03-1.16-2.48-2.24-2.87c-1.75-0.62-3.86,0.42-5.86,0.37c-2.05-0.05-3.84-0.57-5.61-0.87c-2.02-0.35-3.49-0.34-4.61-1.74
		c-0.51-0.64-1.54-3.11-1.75-3.99c-0.59-2.54-0.09-5.9,0.5-8.35c0.3-1.23,1.57-2.97,1.5-4.11c-0.09-1.41-2.45-2.83-3.24-3.99
		c-1.25-1.83-2.47-4.56-2.37-7.85c0.2-6.75,3.24-11.07,9.84-11.84c1.32-0.15,5.36,0.47,6.23-0.62c0.57-0.72,0.46-3.03,0.62-3.99
		c0.22-1.27,0.6-2.67,0.87-3.61c1.45-5.14,3.09-10,8.72-10.84c5.08-0.75,10.89,0.34,13.21,3.24c0.6,0.75,0.92,1.81,1.49,2.62
		c0.38,0.54,1.13,1.13,1.75,1.75c0.31,0.31,1.32,1.78,1.62,1.87c0.8,0.23,3.33-0.99,4.11-1.12c0.83-0.14,1.75-0.1,2.62-0.25
		c0.86-0.15,1.73-0.5,2.24-0.5c3.35-0.02,5.84,2.29,7.48,4.24c1.28,1.53,2.29,4.49,1.74,7.35c-0.18,0.96-0.78,1.87-1.12,2.87
		c-0.38,1.11-0.43,2.31-0.75,3.24c-0.67,1.91-2.4,3.79-3.37,5.98c-0.28,0.63-1,1.8-1,2.12c0,1,1.55,1.61,2.49,2.62
		c1.67,1.78,3.4,4.67,5.11,6.73C66.95,44.32,67.86,45.77,68.08,48.21z M61.22,39.73c-0.68-0.7-3.46-3.7-4.49-3.49
		c-0.69,0.14-1.3,2.03-2.12,2.99c-0.47,0.55-1.32,0.93-1.5,1.62c-0.21,0.83,0.2,1.84,0.25,2.74c0.06,1.07-0.23,2.23-0.12,3.24
		c0.09,0.82,0.59,1.54,0.62,2.12c0.03,0.48-0.34,0.76-0.37,1.25c-0.03,0.42,0.31,0.99,0.25,1.5c-0.04,0.34-0.42,0.7-0.5,1.12
		c-0.08,0.45,0.1,1.01,0,1.5c-0.18,0.89-1.06,2.39-0.75,2.99c0.45,0.86,4.3,0.56,6.35,0.25c1.95-0.29,3.72-0.75,4.74-1.37
		c0.71-0.44,2.38-2.51,2.62-3.49c0.39-1.59,0.1-4.03-0.12-5.23C65.43,44.02,63.39,41.97,61.22,39.73z M57.73,10.95
		c-2.19-0.5-5.34,0.37-6.98,0.62c-0.85,0.13-2.35,0.03-2.74,0.5c-0.73,0.87,0.08,1.38,0.25,2.24c0.28,1.41,0.61,1.84,1,2.99
		c0.26,0.77,0.54,1.63,0.75,2.49c0.4,1.64,0.87,3.47,1.12,5.23c0.15,1.06-0.15,3.03,0.25,3.99c0.11,0.26,1.69,1.35,2.37,1.87
		c0.69,0.53,2.07,1.7,2.74,1.62c0.91-0.11,1.93-2.82,2.62-3.99c0.83-1.42,1.92-3.01,2.37-4.36c0.6-1.83,1.47-4.96,1.37-6.23
		C62.58,14.45,61.01,11.7,57.73,10.95z M55.24,34.75c0.35-0.63-1.88-1.5-2.49-1.87c-0.4-0.24-0.22-0.76-0.75-0.5
		c-0.62,0.31,0.17,1.52,0.25,2.12c0.2,1.46-0.12,2.64,0.37,3.49C53.67,37.39,54.55,35.99,55.24,34.75z M39.04,52.69
		c-1.55,0.81-1.91,1.09-0.37,1.87c2.64,1.33,5.83,1.47,8.47,2.12c0.85,0.21,2.94,0.96,3.61,0.62c0.37-0.19,1.12-3.59,1.37-5.36
		c0.5-3.54-0.12-7.43-0.25-9.97C47.74,45.57,44.17,50.01,39.04,52.69z M50.51,34c-0.07-1.09,0.09-2.24-0.25-2.87
		c-0.37-0.69-2.4-1.81-3.49-2.49c-1.36-0.85-2.63-1.85-3.61-2.37c-0.85-0.45-1.78-0.64-2.62-1.12c-0.83-0.47-1.53-1.15-2.24-1.5
		c-1.34-0.65-3.08-1.14-4.61-1.75c-1.5-0.59-3.34-1.62-4.74-1.62c-2.25,0-3.09,1.99-4.24,3.24c-1.5,1.64-4.6,3.4-5.48,5.23
		c-1.3,2.71-0.81,7.09-0.75,9.97c0.04,1.94-0.29,2.67,0.12,4.74c0.05,0.26,0.61,2.67,0.75,2.87c0.14,0.2,1.24,0.57,1.87,0.87
		c3.47,1.67,6.08,2.87,9.6,4.36c1.19,0.51,2.82,1.49,4.36,1.25c1.1-0.17,3.08-1.96,4.36-2.87c1.6-1.13,2.77-2.08,4.11-3.12
		c1.99-1.55,3.65-3.49,5.61-5.23c1.31-1.17,1.78-1.53,1.74-3.12C50.97,37.11,50.61,35.56,50.51,34z M49.38,22.66
		c-0.25-1.18-0.63-2.55-1.12-3.74c-0.38-0.91-0.98-1.87-1.12-2.62c-0.31-1.59-0.79-3.95-2.87-3.36c-2.04,0.58-4.07,1.43-5.86,2.24
		c-1.39,0.63-2.48,1.27-3.49,1.74c-0.63,0.29-1.27,0.25-1.87,0.5c-0.24,0.1-0.48,0.47-1,0.75c-1.28,0.68-1.59,0.63-0.25,1.49
		c2.07,1.34,5,1.61,7.48,2.62c0.85,0.34,1.77,0.95,2.62,1.37c1,0.49,2.07,0.79,2.87,1.25c0.84,0.48,1.59,1.23,2.49,1.75
		c0.92,0.52,1.86,0.92,2.74,1.5C49.96,26.55,49.78,24.55,49.38,22.66z M49.51,59.3c-3.33-0.73-8.22-1.42-11.46-2.49
		c-0.92-0.3-2.77-1.25-3.61-1.12c-0.58,0.09-1.57,1.31-2.12,1.62c-1.31,0.74-2.36,1.28-3.74,1.99c-0.95,0.49-2.34,0.9-2.49,1.37
		c-0.2,0.61,0.61,2.11,1,2.74c0.45,0.74,0.93,1.7,1.5,2.37c1.32,1.59,3.38,2.13,5.98,2.12c7.18-0.02,13.44-3.5,15.33-8.22
		c0.05-0.13-0.09-0.2-0.12-0.25C49.67,59.3,49.69,59.34,49.51,59.3z M41.66,7.58c-0.92-1.16-0.86-2.58-1.62-3.36
		c-0.52-0.54-2.75-1.68-3.36-1.87c-2.28-0.72-4.26-0.47-6.6-0.25c-1.98,0.19-3.8,0.73-5.11,1.74c-0.13,0.1-0.09,0.48-0.25,0.62
		c-0.23,0.21-0.52,0.12-0.62,0.25c-0.28,0.32-0.41,0.96-0.75,1.5c-1.57,2.49-2.72,5.34-3.36,9.1c-0.09,0.54-0.88,2.49-0.5,2.87
		c0.54,0.54,3.38,0.04,4.61,0.12c0.57,0.04,1.13,0.54,1.5,0.5c0.44-0.05,1.21-0.95,1.74-1.25c2.39-1.33,5.51-2.44,7.98-3.61
		c1.97-0.94,3.65-1.7,5.36-2.49c1.25-0.58,3.71-0.55,3.12-2.12C43.53,8.68,42.04,8.07,41.66,7.58z M21.1,51.07
		c0.77,1.98,1.85,6.37,3.24,7.35c0.94,0.66,1.75-0.22,2.74-0.62c0.71-0.29,1.4-0.45,1.99-0.75c0.91-0.46,4.13-2.23,3.11-2.74
		c-1.56-0.79-3.28-1.2-4.98-1.87c-2.27-0.89-4.28-2.47-6.6-2.99C20.43,50.07,20.86,50.47,21.1,51.07z M20.6,22.91
		c0.97-0.86,4.5-2.37,1.25-2.87c-3.32-0.51-2.82,1.62-2.87,4.11C19.85,24.31,20.07,23.38,20.6,22.91z M22.84,59.05
		c-1.24-1.87-2.14-4.17-2.99-6.73c-0.35-1.05-0.78-3.08-1.37-3.74c-0.41-0.46-1.58-0.74-2.37-1.12c-1.83-0.87-2.98-1.53-4.61-2.49
		c-0.34-0.21-2.16-1.24-2.49-1.12c-0.44,0.15-1.39,3.32-1.5,3.74c-0.91,3.61-0.98,6.64,0.12,9.22c1,2.33,1.89,2.48,4.86,2.87
		c1.07,0.14,2.15,0.54,2.87,0.62c3.4,0.37,4.84-0.36,7.48-0.87C22.8,59.33,22.9,59.14,22.84,59.05z M12.87,31.76
		c1.21-1.62,2.86-2.86,3.86-4.36c0.77-1.15,0.99-2.66,1.12-4.61c0.19-2.77-0.83-1.97-2.49-1.75c-0.97,0.13-2.15-0.09-2.99,0
		c-0.9,0.09-2.62,0.54-3.49,0.87c-3.21,1.22-4.54,3.98-5.36,7.73C3.31,30.63,3.25,31.97,3.4,33c0.46,3.2,2.53,6.28,4.86,7.48
		C9.32,37.37,10.88,34.43,12.87,31.76z M17.23,34.62c0.03-0.52-0.19-2.96-0.5-3.12c-0.31-0.16-2.71,2.7-2.74,2.74
		c-0.65,0.9-1.13,2.04-1.75,2.99c-0.71,1.09-1.07,2.23-1.62,3.24c-0.19,0.34-0.8,0.69-0.75,1.12c0.06,0.5,1.19,0.99,1.62,1.25
		c2.31,1.36,3.62,2.13,6.11,2.87C16.7,42.25,17.03,38.63,17.23,34.62z"/>
</g>
<g>
	<path class="st0" d="M37.92,35.37c0.4,2.79-2.28,6.02-4.24,6.48c-2.94,0.69-6.31-1.99-6.48-4.11c-0.09-1.14,0.66-3.63,1.37-4.61
		c0.83-1.15,3.85-2.69,6.36-2.12C36.39,31.35,37.66,33.55,37.92,35.37z"/>
</g>
</svg>
