<?xml version="1.0"?>
<svg xmlns="http://www.w3.org/2000/svg" viewBox="0 0 512 512" width="512" height="512" fill="white"><g id="Outline"><path d="M80,192v8a56,56,0,0,0,0,112v8a176.022,176.022,0,0,0,348.812,33.515l-15.711-3.03A159.361,159.361,0,0,1,392,404.274V313.486l24-62.4V304s-.241,26.216-.716,31.248l15.928,1.5C431.735,331.223,432,312,432,312a56,56,0,0,0,0-112V144A128.144,128.144,0,0,0,304,16H64a8,8,0,0,0-8,8V56H72V32H304A112.127,112.127,0,0,1,416,144v40.684l-41.685-53.6A8,8,0,0,0,368,128H144A72.189,72.189,0,0,1,73.44,70.409L57.76,73.591a87.533,87.533,0,0,0,25.929,46.394A79.867,79.867,0,0,0,80,144Zm0,104a40,40,0,0,1,0-80Zm352-80a40,40,0,0,1,0,80ZM256,480a158.991,158.991,0,0,1-69.857-16H325.857A158.988,158.988,0,0,1,256,480Zm120-54.2A160.507,160.507,0,0,1,351.978,448H160.022A160.487,160.487,0,0,1,136,425.8V416H376Zm0-73.8H216v16H376v32H136V368h64V352H136V320H376ZM163.313,144H364.087l50.824,65.345L378.505,304H241.758l6.087-30.431-15.69-3.138L225.442,304H133.5L97.333,209.98ZM96,144a64.216,64.216,0,0,1,1.421-13.406,87.739,87.739,0,0,0,43.337,13.334L96,188.687Zm0,107.086,24,62.4v90.8A160.111,160.111,0,0,1,96,320Zm27.884-49.946a85.591,85.591,0,0,1,88.232,0l-8.232,13.72a69.622,69.622,0,0,0-71.768,0Zm184.232,13.72-8.232-13.72a85.591,85.591,0,0,1,88.232,0l-8.232,13.72A69.622,69.622,0,0,0,308.116,214.86ZM168,232a24,24,0,1,0,24,24A24.027,24.027,0,0,0,168,232Zm0,32a8,8,0,1,1,8-8A8.009,8.009,0,0,1,168,264Zm176-32a24,24,0,1,0,24,24A24.027,24.027,0,0,0,344,232Zm0,32a8,8,0,1,1,8-8A8.009,8.009,0,0,1,344,264Z"/></g></svg>
